# xmcd CD database file generated by Grip 3.3.0
# 
# Track frame offsets:
#       150
#       16522
#       34137
#       50632
#       65380
#       81650
#       96810
#       109880
#       126042
#       142675
#       157037
#       175540
# 
# Disc length: 2584 seconds
# 
# Revision: 2
# Processed by: cddbd v1.5.1PL2 Copyright (c) Steve Scherf et al.
# Submitted via: Grip 3.3.0
# 
DISCID=950a160c
DTITLE=Maciel Melo - Jeito Maroto
DYEAR=1998
DGENRE=Country
TTITLE0=Jeito maroto
TTITLE1=Carrapeta de batom
TTITLE2=Caboclo sonhador
TTITLE3=Chovendo siceridade
TTITLE4=Na beirinha do fogão
TTITLE5=Só quer soeira
TTITLE6=Pode mentir que eu não ligo
TTITLE7=NÃo É brincadeira
TTITLE8=No batuque do melê
TTITLE9=Feira de sonhos
TTITLE10=Pergaminho
TTITLE11=Mistério da fé
EXTD=
EXTT0=
EXTT1=
EXTT2=
EXTT3=
EXTT4=
EXTT5=
EXTT6=
EXTT7=
EXTT8=
EXTT9=
EXTT10=
EXTT11=
PLAYORDER=
